<svg xmlns="http://www.w3.org/2000/svg" id="Layer_1" x="0" y="0" enable-background="new 0 0 434.1 434.1" version="1.1" viewBox="0 0 434.1 434.1" xml:space="preserve" width="58" height="58"><path fill="#fff" d="M82.7 44.3H362.2V366.7H82.7z"></path><path fill="#FC490B" d="M41.1 23.7L68 367.6c.4 5.2 3.9 9.6 8.8 11.1l141.4 44.8c2.5.8 5.2.8 7.7 0l141.4-44.8c4.9-1.6 8.4-6 8.8-11.1L403 23.7c.6-7.4-5.3-13.7-12.7-13.7H53.8c-7.5 0-13.3 6.3-12.7 13.7zm293 106.7H159l5.3 48.8h166.1l-10.9 139-97.4 30.8-97.4-30.9-5.7-72.6h51.1v35.6l53.3 14.3 53-14.3 4.1-56.8H117.4L106.5 85.8h231.1l-3.5 44.6z"></path></svg>