<svg xmlns="http://www.w3.org/2000/svg" width="58.3" height="35.2" fill="none" viewBox="0 0 65 39"><path fill="#06B6D4" fill-rule="evenodd" d="M32.5 0c-8.665 0-14.081 4.333-16.25 13 3.251-4.332 7.042-5.956 11.373-4.874 2.476.617 4.232 2.41 6.2 4.395 3.173 3.235 6.876 6.976 14.927 6.976 8.665 0 14.081-4.333 16.25-13-3.248 4.335-7.039 5.96-11.373 4.875-2.476-.618-4.232-2.41-6.2-4.396C44.244 3.725 40.558 0 32.5 0zM16.25 19.497c-8.665 0-14.081 4.334-16.25 13 3.255-4.331 7.046-5.956 11.373-4.874 2.476.617 4.232 2.41 6.2 4.4C20.745 35.254 24.448 39 32.5 39c8.665 0 14.081-4.333 16.25-13-3.248 4.332-7.039 5.953-11.373 4.864-2.476-.618-4.232-2.41-6.2-4.396-3.173-3.235-6.876-6.981-14.927-6.981v.01z" clip-rule="evenodd"></path></svg>