<svg xmlns="http://www.w3.org/2000/svg" id="Capa_1" width="58" height="58" viewBox="0 0 512 512"><linearGradient id="XMLID_00000118357800129798447730000005862678814579567263_" x1="337.597" x2="156.289" y1="89.494" y2="459.361" gradientUnits="userSpaceOnUse"><stop offset="0" stop-color="#3f873f"></stop><stop offset="0.33" stop-color="#3f8b3d"></stop><stop offset="0.637" stop-color="#3e9638"></stop><stop offset="0.934" stop-color="#3da92e"></stop><stop offset="1" stop-color="#3dae2b"></stop></linearGradient><linearGradient id="SVGID_1_" x1="225.787" x2="733.809" y1="282.815" y2="-92.539" gradientUnits="userSpaceOnUse"><stop offset="0.138" stop-color="#3f873f"></stop><stop offset="0.402" stop-color="#52a044"></stop><stop offset="0.713" stop-color="#64b749"></stop><stop offset="0.908" stop-color="#6abf4b"></stop></linearGradient><linearGradient id="SVGID_00000048489710280204197710000009720263475330385543_" x1="24.028" x2="487.275" y1="255.987" y2="255.987" gradientUnits="userSpaceOnUse"><stop offset="0.092" stop-color="#6abf4b"></stop><stop offset="0.287" stop-color="#64b749"></stop><stop offset="0.598" stop-color="#52a044"></stop><stop offset="0.862" stop-color="#3f873f"></stop></linearGradient><path id="XMLID_143_" fill="url(#XMLID_00000118357800129798447730000005862678814579567263_)" fill-rule="evenodd" d="M268.14 3.246a24.233 24.233 0 00-24.231 0L43.22 119.058a24.226 24.226 0 00-12.125 20.994v231.802c0 8.659 4.62 16.657 12.117 20.994L243.9 508.752a24.253 24.253 0 0024.247 0l200.642-115.905a24.258 24.258 0 0012.115-20.994v-231.81c0-8.659-4.62-16.657-12.123-20.986z" clip-rule="evenodd"></path><path fill="url(#SVGID_1_)" d="M469.18 119.058L267.93 3.246c-1.985-1.147-4.112-1.968-6.299-2.507L36.08 386.577c1.935 2.865 3.818 4.803 6.355 6.271l201.592 115.905c5.71 3.296 12.496 4.067 18.723 2.346L474.577 123.21a26.411 26.411 0 00-5.397-4.152z"></path><path fill="url(#SVGID_00000048489710280204197710000009720263475330385543_)" d="M469.293 392.848c5.848-3.384 9.989-9.312 11.148-16.265L261.631.739c-5.761-1.147-12.959-.486-18.143 2.507L43.59 118.361l215.947 393.404c3.082-.42 6.1-1.417 8.863-3.012z"></path></svg>